<svg viewBox="0 0 652 652" xmlns="http://www.w3.org/2000/svg"><path d="m425.6 399 21-98.4 8 98.4h45.3l-21-156.3h-48.5l-22.6 93.7-22.6-93.7h-48.5l-21 156.3H361l8.1-98.4 21 98.4h35.5zM521 242.8V399h100v-32.8h-57.8V242.8H521zm-451.3 0L21 399h48.7l6.5-28.1h42.2l6.5 28.1h48.7l-48.7-156.3H69.7zm27.6 34.4 14.6 64.1H82.7c0-.1 14.6-64.1 14.6-64.1zm189.2 9.7C246.1 252.5 183 266.5 182.4 298c-9.2-58.5 63.4-70.8 104.1-52.3.7 9.4 1.4 19.5 0 41.2zM253 305.6c16.7 6.3 46.5 14.4 46.5 47.9 0 20.6-20.4 40-44 47.1-29.2 8.8-58.4.1-76.3-7.4v-38c15.1 10.5 28.4 16.1 44.9 16.4 9.9.2 25-4.6 25-18 0-11.5-10.9-15-17.2-18.4-36-19.2-25.1-57.7 7.4-60.9-9.4 3.1-11.4 8.1-11.4 12.7.1 11.2 14.9 14.7 25.1 18.6z" fill="#0f238c"/></svg>